<svg width="1307" height="1307" viewBox="0 0 1307 1307" fill="none" xmlns="http://www.w3.org/2000/svg">
<g clip-path="url(#clip0_90_5115)">
<path d="M1130 1.33327C1113.73 3.73327 1094.27 11.4666 1084.13 19.5999C1069.87 31.0666 1041.33 57.4666 1011.33 86.7999C957.067 140 934.267 161.333 931.867 161.333C930.533 161.333 908 153.067 881.733 142.8C820.933 119.2 782.533 105.2 767.067 100.667C755.867 97.4666 754.533 97.3333 750.933 99.1999C740.267 104.667 729.867 123.2 712.267 168.533L701.867 195.2L669.867 194.8C652.4 194.533 628.133 194 616.133 193.467L594.4 192.667L580.8 162.667C559.733 116.533 554.8 107.867 546.267 102.667C540.4 99.0666 535.467 99.3333 521.733 104.133C486.667 116.533 392.533 156.267 363.733 170.8C340.8 182.533 333.067 188.4 329.867 196.667L327.6 202.933L333.067 219.067C336 228 344.267 248.8 351.333 265.333L364.133 295.2L340.4 319.067C314.933 344.667 293.067 364.933 288.667 366.933C286.4 367.867 276.8 364.667 242.8 351.2L199.733 334.267L190.4 338.8C179.733 344 176.267 347.467 170.133 359.867C159.2 381.467 114.267 494.133 100.533 534C92.1333 558.4 100.267 565.467 166.933 592L194.667 602.933V656.533V710L158.4 725.733C120.267 742.267 109.467 748.267 104.267 756C101.467 760.133 101.2 761.733 101.733 770C102.533 782 106.267 792.8 124.267 835.333C154.133 906 162.933 928.133 162.133 931.2C161.333 934.533 141.867 955.6 107.333 990.667L85.6 1012.67L51.6 1115.33C12.4 1233.47 0 1273.47 0 1281.6C0 1289.47 12.2667 1302.93 21.7333 1305.47C26.4 1306.67 29.3333 1306.13 46.5333 1301.33C57.2 1298.27 116.4 1279.07 177.867 1258.53L289.733 1221.2L331.067 1180.53C353.733 1158.13 373.067 1140.13 373.867 1140.53C374.667 1140.8 406 1153.33 443.333 1168.4C541.867 1207.87 547.6 1209.73 557.2 1204.67C566 1200.13 574.933 1183.6 593.333 1136.93L604.4 1109.33H635.2C652.133 1109.33 676.267 1109.73 688.667 1110.27L711.333 1111.07L719.867 1130.53C724.533 1141.2 732.533 1158.4 737.467 1168.67C754.933 1205.07 760.533 1208.67 786.933 1199.87C811.467 1191.6 885.2 1161.07 928 1141.33C972.533 1120.93 976.8 1117.6 976.533 1103.47C976.267 1093.6 972.8 1083.47 954.667 1040.8C947.333 1023.47 941.333 1009.2 941.333 1008.93C941.333 1008.67 953.467 996.267 968.4 981.2C983.333 966.267 999.467 949.2 1004.4 943.2L1013.2 932.4L1047.87 946.267C1111.87 971.867 1119.47 971.6 1133.2 944.267C1149.47 911.6 1195.6 796 1203.33 768.4C1210.13 744.133 1199.47 735.333 1131.6 709.2L1109.2 700.667L1110.13 648.667C1110.67 620 1111.47 595.733 1112 594.667C1112.67 593.6 1125.6 587.067 1140.93 580.133C1199.73 553.733 1209.2 545.867 1203.2 527.6C1198 511.333 1174.27 454.133 1146.93 391.733L1138.93 373.467L1203.07 308.4C1281.87 228.533 1292.67 216 1300 196.4C1312.4 163.067 1305.47 116 1283.6 87.3333C1275.07 76.1333 1238 39.9999 1221.33 26.6666C1201.07 10.5333 1186.8 4.39993 1162.13 1.33327C1150.13 -0.133401 1140 -0.133401 1130 1.33327ZM1170 63.4666C1181.47 68.9333 1200.27 85.1999 1218 104.8C1259.87 151.067 1258.67 168 1210.67 219.733C1200.27 230.933 1191.2 240 1190.53 239.733C1188.93 239.2 1066.67 117.067 1066.67 116C1066.67 115.6 1077.07 104.933 1089.73 92.3999C1117.07 65.4666 1123.47 61.3333 1141.87 58.6666C1152.4 57.1999 1159.87 58.5333 1170 63.4666ZM1027.47 161.6C1043.2 173.6 1061.33 192.933 1061.33 197.6C1061.33 198.667 1045.6 216 1026.27 236.133C978.933 285.333 762 504.267 609.733 656.4L486 780L464 758L442 736L602.667 575.2C785.333 392.4 1020.93 158.667 1022.53 158.667C1023.2 158.667 1025.33 160 1027.47 161.6ZM837.733 189.867C867.6 201.867 882.667 208.667 882.667 210C882.667 213.067 814.133 284.133 763.067 334L728.267 368L707.733 364.533C679.6 359.733 641.467 358.667 616 362C549.6 370.4 489.6 401.067 441.733 451.2C398.667 496.267 374.267 545.867 364.4 608.267C360.8 630.933 361.2 682.933 365.067 704.267C375.2 759.467 405.467 816.267 446.667 857.333C476.267 886.933 517.2 912.533 560 928.4C594.933 941.333 641.6 947.467 679.333 944.133C747.867 937.867 810.8 908.8 858.4 861.2C882 837.6 897.2 815.6 915.2 779.333C938 733.2 943.333 708.133 943.067 647.333C943.067 619.733 942.533 612.533 939.6 595.333L936.267 575.333L1014.4 497.067C1057.47 454 1093.07 419.2 1093.47 419.733C1096.93 423.2 1133.33 511.733 1133.33 516.533C1133.33 518.267 1116.27 526.8 1095.33 535.333C1073.47 544.4 1061.47 550.8 1056.67 556.133C1054.13 559.067 1052 562.133 1051.87 563.067C1051.87 563.867 1051.73 602.4 1051.73 648.533L1051.6 732.533L1057.6 737.867C1064.27 743.867 1081.2 752.667 1110.8 765.2C1121.47 769.733 1131.87 774.933 1134 776.533L1137.87 779.6L1114.13 838.133C1101.07 870.4 1090 897.067 1089.6 897.6C1089.07 898 1079.73 894.933 1068.67 890.533C1032.4 876.133 1015.87 870.533 1007.47 869.733C999.2 868.933 999.2 869.067 992 874.933C988 878.133 978.533 888.267 970.933 897.333C952.8 919.333 928 945.467 912.8 958.933C878.4 989.333 875.6 994.267 880.667 1014C881.867 1018.27 887.867 1034.13 894.133 1049.2C900.4 1064.27 905.867 1078.53 906.267 1080.8C906.933 1084.8 906.667 1084.93 893.733 1090.93C856 1108.67 791.2 1136.4 789.067 1135.73C788.4 1135.47 781.333 1120.8 773.467 1103.33C757.6 1067.47 751.6 1057.47 743.467 1052.8C735.467 1048.13 729.333 1047.6 710 1050C696.133 1051.73 680.8 1052.27 634.267 1052.13C571.067 1052 569.867 1052.13 564.267 1059.2C560.533 1064 551.067 1083.6 543.333 1102.67C539.867 1111.07 534.933 1122.4 532.267 1127.73C527.867 1136.8 527.333 1137.47 524.133 1136.67C519.067 1135.33 449.333 1108 426.933 1098.4C404.533 1088.93 405.733 1091.87 414.8 1068.4C417.733 1060.4 422.667 1047.73 425.6 1040.13C434.667 1016.27 436.267 1002.93 431.333 993.2C430.133 991.067 418.667 980.533 405.6 969.6C390.933 957.2 374 941.333 360.667 927.333C310.133 874.133 310.933 874.667 296.8 877.867C292.133 879.067 274.667 885.333 258.133 892C241.467 898.667 226.133 904.4 224 904.8C220.4 905.6 219.867 905.067 216.133 897.733C206.933 879.467 167.333 788.267 168.267 787.467C168.4 787.2 180.4 781.733 194.667 775.333C240.667 754.8 251.333 748 254.8 737.6C256.4 732.667 256.133 722.667 253.333 694C252.4 685.467 252 657.467 252.267 626.667C252.533 584.933 252.267 573.067 250.933 569.733C248 562.933 236.4 556.4 203.333 542.667C183.867 534.667 171.467 528.8 168.4 526.4C166.533 524.933 166.133 525.867 191.067 463.333C210.533 414.4 213.867 406.667 216 406.667C217.333 406.667 240.533 414.933 258.4 421.867C285.733 432.533 301.467 435.467 309.067 431.467C313.733 429.067 324.933 417.2 337.333 402C352.533 383.2 374.667 361.467 399.733 340.4C412.267 329.867 423.6 319.467 424.667 317.333C427.333 312 427.2 299.733 424.133 289.333C422.8 284.533 417.067 269.2 411.6 255.2C406 241.2 401.2 227.6 401.067 225.2C400.667 220.667 400.667 220.667 416.667 212.667C440.267 200.8 504.8 174.667 515.6 172.533C519.333 171.867 519.6 172.133 525.6 184.933C528.933 192.133 535.467 206.4 539.867 216.667C549.333 238.4 555.6 247.333 564 251.733C570.8 255.2 577.333 255.2 612.8 251.867C628.933 250.4 638 250.533 676.133 252.267C719.6 254.4 729.6 254.133 735.6 250.933C741.6 247.6 749.2 234.267 762 204C769.867 185.6 776.667 171.2 778.933 168.4C780.267 166.8 784.533 168.267 837.733 189.867ZM1127.47 259.2C1138 269.867 1146.67 278.933 1146.67 279.6C1146.67 280.133 1016.13 411.2 856.667 570.667L566.667 860.667L546.667 840.667L526.667 820.667L726 620C967.867 376.667 1104.8 240 1106.8 240C1107.6 240 1116.93 248.667 1127.47 259.2ZM672 421.333C673.6 422.4 647.867 448.667 546.8 549.467C452.4 643.733 419.467 675.867 418.533 674.533C416.667 671.467 417.2 639.067 419.333 624.667C424.667 589.733 434.267 561.067 449.067 535.867C471.733 497.467 507.867 464.133 548.667 443.733C570.4 432.8 597.6 423.867 616.667 421.333C628.4 419.867 669.6 419.867 672 421.333ZM885.2 659.333C885.6 693.6 878 722.933 859.067 759.733C839.867 797.333 817.067 822.933 781.733 846.533C740 874.533 702.933 884.8 648.933 883.733L629.2 883.333L756.267 755.467L883.333 627.467L884.133 636.8C884.667 641.867 885.067 652 885.2 659.333ZM301.6 944.533C307.067 949.6 307.067 950.8 302.267 958C300.8 960.133 275.867 985.867 246.8 1015.07L194.133 1068L173.733 1047.73C162.533 1036.53 153.333 1026.67 153.333 1025.87C153.333 1023.73 190 988.267 198.667 981.867C202.667 978.933 210.267 975.2 215.333 973.333C220.533 971.6 240.267 963.467 259.333 955.2C278.4 946.933 294.667 940.133 295.333 940.133C296.133 940 298.933 942.133 301.6 944.533ZM358 1001.33C360.267 1002.8 364.133 1006.4 366.8 1009.47L371.6 1015.07L361.2 1040.93C344.8 1081.87 342.667 1084.8 302.4 1125.07L276.667 1150.67L256.667 1130.67L236.667 1110.67L276.667 1070.53C319.333 1027.73 350 998.667 352.533 998.667C353.333 998.667 355.867 999.867 358 1001.33ZM173.067 1131.2C198.933 1157.2 220 1179.07 220 1179.73C220 1180.53 218.933 1181.47 217.733 1182C205.867 1186.8 80 1228 77.2 1228C75.2 1228 84.5333 1199.73 120.267 1095.6C122.4 1089.2 124.667 1084 125.2 1084C125.733 1084 147.333 1105.2 173.067 1131.2Z" fill="#FF2E00"/>
</g>
<defs>
<clipPath id="clip0_90_5115">
<rect width="1306.67" height="1306.67" fill="white"/>
</clipPath>
</defs>
</svg>
